# xmcd
#
# Track frame offsets:
#	150
#	12017
#	29153
#	38967
#
# Disc length: 731 seconds
# Revision: 0
# Processed by: cddbd v1.5.2PL0 Copyright (c) Steve Scherf et al.
# Submitted via: dBpowerAMP V12.0
#
DISCID=2b02d904
DTITLE=Brian Stitt - Brian Stitt
DYEAR=2016
DGENRE=Country
TTITLE0=It's nearly always dry in Carinda
TTITLE1=Three yellow ducks
TTITLE2=M' Dog
TTITLE3=Headin' for Darwin
EXTD=
EXTT0=
EXTT1=
EXTT2=
EXTT3=
PLAYORDER=
